<svg xmlns="http://www.w3.org/2000/svg" viewBox="0 0 512 512"><rect width="512" height="512" rx="112" fill="#ed7136"/><circle cx="256" cy="256" r="194" fill="#fff3d6"/><path d="M152 150q0-22 22-22h128q22 0 22 22v244H136v-29h16Z" fill="#487b9b"/><rect x="178" y="155" width="120" height="82" rx="12" fill="#b8d8d4"/><path d="M324 228h27q26 0 26 27v85q0 36-22 36t-22-36v-31M355 178l38 46v54h-26v-44l-30-36" fill="none" stroke="#44545e" stroke-width="18" stroke-linejoin="round"/><path d="m247 261-37 62h31l-10 47 49-69h-33Z" fill="#fff3d6"/></svg>
